<?xml version="1.0" encoding="UTF-8" standalone="no"?>
<!-- Created with Inkscape (http://www.inkscape.org/) -->

<svg
   width="84.264618mm"
   height="84.264626mm"
   viewBox="0 0 86.264992 86.265"
   version="1.1"
   id="svg5"
   inkscape:version="1.2.1 (9c6d41e410, 2022-07-14)"
   sodipodi:docname="2x2.svg"
   xmlns:inkscape="http://www.inkscape.org/namespaces/inkscape"
   xmlns:sodipodi="http://sodipodi.sourceforge.net/DTD/sodipodi-0.dtd"
   xmlns="http://www.w3.org/2000/svg"
   xmlns:svg="http://www.w3.org/2000/svg">
  <sodipodi:namedview
     id="namedview7"
     pagecolor="#ffffff"
     bordercolor="#000000"
     borderopacity="0.25"
     inkscape:showpageshadow="2"
     inkscape:pageopacity="0.0"
     inkscape:pagecheckerboard="0"
     inkscape:deskcolor="#d1d1d1"
     inkscape:document-units="mm"
     showgrid="false"
     inkscape:zoom="1.0544998"
     inkscape:cx="-34.613567"
     inkscape:cy="159.31724"
     inkscape:window-width="1920"
     inkscape:window-height="1017"
     inkscape:window-x="-8"
     inkscape:window-y="-8"
     inkscape:window-maximized="1"
     inkscape:current-layer="layer1" />
  <defs
     id="defs2" />
  <g
     inkscape:label="Layer 1"
     inkscape:groupmode="layer"
     id="layer1"
     transform="translate(-26.718722,-66.864075)">
    <path
       style="fill:none;stroke:#ff0000;stroke-width:0.264583;stroke-opacity:1"
       d="m 29.850891,67.996366 c -1.107999,0 -1.999878,0.891879 -1.999878,1.999878 v 80.000286 c 0,1.108 0.891879,1.99988 1.999878,1.99988 h 79.999769 c 1.108,0 2.00039,-0.89188 2.00039,-1.99988 V 69.996244 c 0,-1.107999 -0.89239,-1.999878 -2.00039,-1.999878 z"
       id="rect957" />
    <path
       id="path302"
       style="fill:none;stroke:#ff0000;stroke-width:0.264583;stroke-opacity:1"
       d="m 74.355371,112.45336 h 33.988369 c 1.1343,0 2.04736,0.91304 2.04736,2.04734 v 33.9879 c 0,1.13429 -0.91306,2.04786 -2.04736,2.04786 H 74.355371 c -1.134308,0 -2.047364,-0.91357 -2.047364,-2.04786 v -33.9879 c 0,-1.1343 0.913056,-2.04734 2.047364,-2.04734 z m -42.997047,0 h 33.988368 c 1.134308,0 2.047366,0.91304 2.047366,2.04734 v 33.9879 c 0,1.13429 -0.913058,2.04786 -2.047366,2.04786 H 31.358325 c -1.134309,0 -2.047365,-0.91357 -2.047365,-2.04786 v -33.9879 c 0,-1.1343 0.913056,-2.04734 2.047364,-2.04734 z M 74.355371,69.456313 h 33.988369 c 1.1343,0 2.04736,0.913044 2.04736,2.047337 v 33.9879 c 0,1.13429 -0.91306,2.04786 -2.04736,2.04786 H 74.355371 c -1.134308,0 -2.047364,-0.91357 -2.047364,-2.04786 v -33.9879 c 0,-1.134293 0.913056,-2.047337 2.047364,-2.047337 z m -42.997047,0 h 33.988368 c 1.134308,0 2.047366,0.913044 2.047366,2.047337 v 33.9879 c 0,1.13429 -0.913058,2.04786 -2.047366,2.04786 H 31.358325 c -1.134309,0 -2.047365,-0.91357 -2.047365,-2.04786 v -33.9879 c 0,-1.134293 0.913056,-2.047337 2.047364,-2.047337 z" />
  </g>
</svg>
