<?xml version="1.0" encoding="UTF-8" standalone="no"?>
<!-- Created with Inkscape (http://www.inkscape.org/) -->

<svg
   width="450mm"
   height="300mm"
   viewBox="0 0 460.68264 307.12176"
   version="1.1"
   id="svg5"
   inkscape:version="1.2.1 (9c6d41e410, 2022-07-14)"
   sodipodi:docname="baseplate 10x7 (450x300mm).svg"
   xmlns:inkscape="http://www.inkscape.org/namespaces/inkscape"
   xmlns:sodipodi="http://sodipodi.sourceforge.net/DTD/sodipodi-0.dtd"
   xmlns="http://www.w3.org/2000/svg"
   xmlns:svg="http://www.w3.org/2000/svg">
  <sodipodi:namedview
     id="namedview7"
     pagecolor="#ffffff"
     bordercolor="#000000"
     borderopacity="0.25"
     inkscape:showpageshadow="2"
     inkscape:pageopacity="0.0"
     inkscape:pagecheckerboard="0"
     inkscape:deskcolor="#d1d1d1"
     inkscape:document-units="mm"
     showgrid="false"
     inkscape:zoom="0.5272499"
     inkscape:cx="653.39036"
     inkscape:cy="627.7858"
     inkscape:window-width="1920"
     inkscape:window-height="1017"
     inkscape:window-x="-8"
     inkscape:window-y="-8"
     inkscape:window-maximized="1"
     inkscape:current-layer="layer1" />
  <defs
     id="defs2" />
  <g
     inkscape:label="Layer 1"
     inkscape:groupmode="layer"
     id="layer1"
     transform="translate(-26.718722,-66.864075)">
    <path
       id="path414"
       style="fill:none;stroke:#ff0000;stroke-width:0.270864"
       d="m 80.704557,110.62893 h -34.26247 c -1.14345,0 -2.06387,-0.92041 -2.06387,-2.06385 V 74.303075 c 0,-1.14344 0.92042,-2.06438 2.06387,-2.06438 h 34.26247 c 1.14346,0 2.06388,0.92094 2.06388,2.06438 v 34.262005 c 0,1.14344 -0.92042,2.06385 -2.06388,2.06385 z m 0,42.99705 h -34.26247 c -1.14345,0 -2.06387,-0.92041 -2.06387,-2.06385 v -34.262 c 0,-1.14344 0.92042,-2.06438 2.06387,-2.06438 h 34.26247 c 1.14346,0 2.06388,0.92094 2.06388,2.06438 v 34.262 c 0,1.14344 -0.92042,2.06385 -2.06388,2.06385 z m 0,42.99705 h -34.26247 c -1.14345,0 -2.06387,-0.92041 -2.06387,-2.06385 v -34.262 c 0,-1.14344 0.92042,-2.06438 2.06387,-2.06438 h 34.26247 c 1.14346,0 2.06388,0.92094 2.06388,2.06438 v 34.262 c 0,1.14344 -0.92042,2.06385 -2.06388,2.06385 z m 0,42.99705 h -34.26247 c -1.14345,0 -2.06387,-0.92041 -2.06387,-2.06385 v -34.262 c 0,-1.14344 0.92042,-2.06438 2.06387,-2.06438 h 34.26247 c 1.14346,0 2.06388,0.92094 2.06388,2.06438 v 34.262 c 0,1.14344 -0.92042,2.06385 -2.06388,2.06385 z m 0,42.99705 h -34.26247 c -1.14345,0 -2.06387,-0.92041 -2.06387,-2.06385 v -34.262 c 0,-1.14344 0.92042,-2.06438 2.06387,-2.06438 h 34.26247 c 1.14346,0 2.06388,0.92094 2.06388,2.06438 v 34.262 c 0,1.14344 -0.92042,2.06385 -2.06388,2.06385 z m 0,42.99705 h -34.26247 c -1.14345,0 -2.06387,-0.92041 -2.06387,-2.06385 v -34.262 c 0,-1.14344 0.92042,-2.06438 2.06387,-2.06438 h 34.26247 c 1.14346,0 2.06388,0.92094 2.06388,2.06438 v 34.262 c 0,1.14344 -0.92042,2.06385 -2.06388,2.06385 z m 0,42.99704 h -34.26247 c -1.14345,0 -2.06387,-0.9204 -2.06387,-2.06385 v -34.26199 c 0,-1.14344 0.92042,-2.06438 2.06387,-2.06438 h 34.26247 c 1.14346,0 2.06388,0.92094 2.06388,2.06438 v 34.26199 c 0,1.14345 -0.92042,2.06385 -2.06388,2.06385 z M 123.7016,110.62893 H 89.439137 c -1.14345,0 -2.06387,-0.92041 -2.06387,-2.06385 V 74.303075 c 0,-1.14344 0.92042,-2.06438 2.06387,-2.06438 H 123.7016 c 1.14346,0 2.06388,0.92094 2.06388,2.06438 v 34.262005 c 0,1.14344 -0.92042,2.06385 -2.06388,2.06385 z m 0,42.99705 H 89.439137 c -1.14345,0 -2.06387,-0.92041 -2.06387,-2.06385 v -34.262 c 0,-1.14344 0.92042,-2.06438 2.06387,-2.06438 H 123.7016 c 1.14346,0 2.06388,0.92094 2.06388,2.06438 v 34.262 c 0,1.14344 -0.92042,2.06385 -2.06388,2.06385 z m 0,42.99705 H 89.439137 c -1.14345,0 -2.06387,-0.92041 -2.06387,-2.06385 v -34.262 c 0,-1.14344 0.92042,-2.06438 2.06387,-2.06438 H 123.7016 c 1.14346,0 2.06388,0.92094 2.06388,2.06438 v 34.262 c 0,1.14344 -0.92042,2.06385 -2.06388,2.06385 z m 0,42.99705 H 89.439137 c -1.14345,0 -2.06387,-0.92041 -2.06387,-2.06385 v -34.262 c 0,-1.14344 0.92042,-2.06438 2.06387,-2.06438 H 123.7016 c 1.14346,0 2.06388,0.92094 2.06388,2.06438 v 34.262 c 0,1.14344 -0.92042,2.06385 -2.06388,2.06385 z m 0,42.99705 H 89.439137 c -1.14345,0 -2.06387,-0.92041 -2.06387,-2.06385 v -34.262 c 0,-1.14344 0.92042,-2.06438 2.06387,-2.06438 H 123.7016 c 1.14346,0 2.06388,0.92094 2.06388,2.06438 v 34.262 c 0,1.14344 -0.92042,2.06385 -2.06388,2.06385 z m 0,42.99705 H 89.439137 c -1.14345,0 -2.06387,-0.92041 -2.06387,-2.06385 v -34.262 c 0,-1.14344 0.92042,-2.06438 2.06387,-2.06438 H 123.7016 c 1.14346,0 2.06388,0.92094 2.06388,2.06438 v 34.262 c 0,1.14344 -0.92042,2.06385 -2.06388,2.06385 z m 0,42.99704 H 89.439137 c -1.14345,0 -2.06387,-0.9204 -2.06387,-2.06385 v -34.26199 c 0,-1.14344 0.92042,-2.06438 2.06387,-2.06438 H 123.7016 c 1.14346,0 2.06388,0.92094 2.06388,2.06438 v 34.26199 c 0,1.14345 -0.92042,2.06385 -2.06388,2.06385 z m 42.99705,-257.98229 h -34.26247 c -1.14345,0 -2.06387,-0.92041 -2.06387,-2.06385 V 74.303075 c 0,-1.14344 0.92042,-2.06438 2.06387,-2.06438 h 34.26247 c 1.14346,0 2.06388,0.92094 2.06388,2.06438 v 34.262005 c 0,1.14344 -0.92042,2.06385 -2.06388,2.06385 z m 0,42.99705 h -34.26247 c -1.14345,0 -2.06387,-0.92041 -2.06387,-2.06385 v -34.262 c 0,-1.14344 0.92042,-2.06438 2.06387,-2.06438 h 34.26247 c 1.14346,0 2.06388,0.92094 2.06388,2.06438 v 34.262 c 0,1.14344 -0.92042,2.06385 -2.06388,2.06385 z m 0,42.99705 h -34.26247 c -1.14345,0 -2.06387,-0.92041 -2.06387,-2.06385 v -34.262 c 0,-1.14344 0.92042,-2.06438 2.06387,-2.06438 h 34.26247 c 1.14346,0 2.06388,0.92094 2.06388,2.06438 v 34.262 c 0,1.14344 -0.92042,2.06385 -2.06388,2.06385 z m 0,42.99705 h -34.26247 c -1.14345,0 -2.06387,-0.92041 -2.06387,-2.06385 v -34.262 c 0,-1.14344 0.92042,-2.06438 2.06387,-2.06438 h 34.26247 c 1.14346,0 2.06388,0.92094 2.06388,2.06438 v 34.262 c 0,1.14344 -0.92042,2.06385 -2.06388,2.06385 z m 0,42.99705 h -34.26247 c -1.14345,0 -2.06387,-0.92041 -2.06387,-2.06385 v -34.262 c 0,-1.14344 0.92042,-2.06438 2.06387,-2.06438 h 34.26247 c 1.14346,0 2.06388,0.92094 2.06388,2.06438 v 34.262 c 0,1.14344 -0.92042,2.06385 -2.06388,2.06385 z m 0,42.99705 h -34.26247 c -1.14345,0 -2.06387,-0.92041 -2.06387,-2.06385 v -34.262 c 0,-1.14344 0.92042,-2.06438 2.06387,-2.06438 h 34.26247 c 1.14346,0 2.06388,0.92094 2.06388,2.06438 v 34.262 c 0,1.14344 -0.92042,2.06385 -2.06388,2.06385 z m 0,42.99704 h -34.26247 c -1.14345,0 -2.06387,-0.9204 -2.06387,-2.06385 v -34.26199 c 0,-1.14344 0.92042,-2.06438 2.06387,-2.06438 h 34.26247 c 1.14346,0 2.06388,0.92094 2.06388,2.06438 v 34.26199 c 0,1.14345 -0.92042,2.06385 -2.06388,2.06385 z M 209.6957,110.62893 h -34.26247 c -1.14345,0 -2.06387,-0.92041 -2.06387,-2.06385 V 74.303075 c 0,-1.14344 0.92042,-2.06438 2.06387,-2.06438 h 34.26247 c 1.14346,0 2.06388,0.92094 2.06388,2.06438 v 34.262005 c 0,1.14344 -0.92042,2.06385 -2.06388,2.06385 z m 0,42.99705 h -34.26247 c -1.14345,0 -2.06387,-0.92041 -2.06387,-2.06385 v -34.262 c 0,-1.14344 0.92042,-2.06438 2.06387,-2.06438 h 34.26247 c 1.14346,0 2.06388,0.92094 2.06388,2.06438 v 34.262 c 0,1.14344 -0.92042,2.06385 -2.06388,2.06385 z m 0,42.99705 h -34.26247 c -1.14345,0 -2.06387,-0.92041 -2.06387,-2.06385 v -34.262 c 0,-1.14344 0.92042,-2.06438 2.06387,-2.06438 h 34.26247 c 1.14346,0 2.06388,0.92094 2.06388,2.06438 v 34.262 c 0,1.14344 -0.92042,2.06385 -2.06388,2.06385 z m 0,42.99705 h -34.26247 c -1.14345,0 -2.06387,-0.92041 -2.06387,-2.06385 v -34.262 c 0,-1.14344 0.92042,-2.06438 2.06387,-2.06438 h 34.26247 c 1.14346,0 2.06388,0.92094 2.06388,2.06438 v 34.262 c 0,1.14344 -0.92042,2.06385 -2.06388,2.06385 z m 0,42.99705 h -34.26247 c -1.14345,0 -2.06387,-0.92041 -2.06387,-2.06385 v -34.262 c 0,-1.14344 0.92042,-2.06438 2.06387,-2.06438 h 34.26247 c 1.14346,0 2.06388,0.92094 2.06388,2.06438 v 34.262 c 0,1.14344 -0.92042,2.06385 -2.06388,2.06385 z m 0,42.99705 h -34.26247 c -1.14345,0 -2.06387,-0.92041 -2.06387,-2.06385 v -34.262 c 0,-1.14344 0.92042,-2.06438 2.06387,-2.06438 h 34.26247 c 1.14346,0 2.06388,0.92094 2.06388,2.06438 v 34.262 c 0,1.14344 -0.92042,2.06385 -2.06388,2.06385 z m 0,42.99704 h -34.26247 c -1.14345,0 -2.06387,-0.9204 -2.06387,-2.06385 v -34.26199 c 0,-1.14344 0.92042,-2.06438 2.06387,-2.06438 h 34.26247 c 1.14346,0 2.06388,0.92094 2.06388,2.06438 v 34.26199 c 0,1.14345 -0.92042,2.06385 -2.06388,2.06385 z m 42.99705,-257.98229 h -34.26247 c -1.14345,0 -2.06387,-0.92041 -2.06387,-2.06385 V 74.303075 c 0,-1.14344 0.92042,-2.06438 2.06387,-2.06438 h 34.26247 c 1.14346,0 2.06388,0.92094 2.06388,2.06438 v 34.262005 c 0,1.14344 -0.92042,2.06385 -2.06388,2.06385 z m 0,42.99705 h -34.26247 c -1.14345,0 -2.06387,-0.92041 -2.06387,-2.06385 v -34.262 c 0,-1.14344 0.92042,-2.06438 2.06387,-2.06438 h 34.26247 c 1.14346,0 2.06388,0.92094 2.06388,2.06438 v 34.262 c 0,1.14344 -0.92042,2.06385 -2.06388,2.06385 z m 0,42.99705 h -34.26247 c -1.14345,0 -2.06387,-0.92041 -2.06387,-2.06385 v -34.262 c 0,-1.14344 0.92042,-2.06438 2.06387,-2.06438 h 34.26247 c 1.14346,0 2.06388,0.92094 2.06388,2.06438 v 34.262 c 0,1.14344 -0.92042,2.06385 -2.06388,2.06385 z m 0,42.99705 h -34.26247 c -1.14345,0 -2.06387,-0.92041 -2.06387,-2.06385 v -34.262 c 0,-1.14344 0.92042,-2.06438 2.06387,-2.06438 h 34.26247 c 1.14346,0 2.06388,0.92094 2.06388,2.06438 v 34.262 c 0,1.14344 -0.92042,2.06385 -2.06388,2.06385 z m 0,42.99705 h -34.26247 c -1.14345,0 -2.06387,-0.92041 -2.06387,-2.06385 v -34.262 c 0,-1.14344 0.92042,-2.06438 2.06387,-2.06438 h 34.26247 c 1.14346,0 2.06388,0.92094 2.06388,2.06438 v 34.262 c 0,1.14344 -0.92042,2.06385 -2.06388,2.06385 z m 0,42.99705 h -34.26247 c -1.14345,0 -2.06387,-0.92041 -2.06387,-2.06385 v -34.262 c 0,-1.14344 0.92042,-2.06438 2.06387,-2.06438 h 34.26247 c 1.14346,0 2.06388,0.92094 2.06388,2.06438 v 34.262 c 0,1.14344 -0.92042,2.06385 -2.06388,2.06385 z m 0,42.99704 h -34.26247 c -1.14345,0 -2.06387,-0.9204 -2.06387,-2.06385 v -34.26199 c 0,-1.14344 0.92042,-2.06438 2.06387,-2.06438 h 34.26247 c 1.14346,0 2.06388,0.92094 2.06388,2.06438 v 34.26199 c 0,1.14345 -0.92042,2.06385 -2.06388,2.06385 z M 295.6898,110.62893 h -34.26247 c -1.14345,0 -2.06387,-0.92041 -2.06387,-2.06385 V 74.303075 c 0,-1.14344 0.92042,-2.06438 2.06387,-2.06438 h 34.26247 c 1.14346,0 2.06388,0.92094 2.06388,2.06438 v 34.262005 c 0,1.14344 -0.92042,2.06385 -2.06388,2.06385 z m 0,42.99705 h -34.26247 c -1.14345,0 -2.06387,-0.92041 -2.06387,-2.06385 v -34.262 c 0,-1.14344 0.92042,-2.06438 2.06387,-2.06438 h 34.26247 c 1.14346,0 2.06388,0.92094 2.06388,2.06438 v 34.262 c 0,1.14344 -0.92042,2.06385 -2.06388,2.06385 z m 0,42.99705 h -34.26247 c -1.14345,0 -2.06387,-0.92041 -2.06387,-2.06385 v -34.262 c 0,-1.14344 0.92042,-2.06438 2.06387,-2.06438 h 34.26247 c 1.14346,0 2.06388,0.92094 2.06388,2.06438 v 34.262 c 0,1.14344 -0.92042,2.06385 -2.06388,2.06385 z m 0,42.99705 h -34.26247 c -1.14345,0 -2.06387,-0.92041 -2.06387,-2.06385 v -34.262 c 0,-1.14344 0.92042,-2.06438 2.06387,-2.06438 h 34.26247 c 1.14346,0 2.06388,0.92094 2.06388,2.06438 v 34.262 c 0,1.14344 -0.92042,2.06385 -2.06388,2.06385 z m 0,42.99705 h -34.26247 c -1.14345,0 -2.06387,-0.92041 -2.06387,-2.06385 v -34.262 c 0,-1.14344 0.92042,-2.06438 2.06387,-2.06438 h 34.26247 c 1.14346,0 2.06388,0.92094 2.06388,2.06438 v 34.262 c 0,1.14344 -0.92042,2.06385 -2.06388,2.06385 z m 0,42.99705 h -34.26247 c -1.14345,0 -2.06387,-0.92041 -2.06387,-2.06385 v -34.262 c 0,-1.14344 0.92042,-2.06438 2.06387,-2.06438 h 34.26247 c 1.14346,0 2.06388,0.92094 2.06388,2.06438 v 34.262 c 0,1.14344 -0.92042,2.06385 -2.06388,2.06385 z m 0,42.99704 h -34.26247 c -1.14345,0 -2.06387,-0.9204 -2.06387,-2.06385 v -34.26199 c 0,-1.14344 0.92042,-2.06438 2.06387,-2.06438 h 34.26247 c 1.14346,0 2.06388,0.92094 2.06388,2.06438 v 34.26199 c 0,1.14345 -0.92042,2.06385 -2.06388,2.06385 z m 42.99705,-257.98229 h -34.26247 c -1.14345,0 -2.06387,-0.92041 -2.06387,-2.06385 V 74.303075 c 0,-1.14344 0.92042,-2.06438 2.06387,-2.06438 h 34.26247 c 1.14346,0 2.06388,0.92094 2.06388,2.06438 v 34.262005 c 0,1.14344 -0.92042,2.06385 -2.06388,2.06385 z m 0,42.99705 h -34.26247 c -1.14345,0 -2.06387,-0.92041 -2.06387,-2.06385 v -34.262 c 0,-1.14344 0.92042,-2.06438 2.06387,-2.06438 h 34.26247 c 1.14346,0 2.06388,0.92094 2.06388,2.06438 v 34.262 c 0,1.14344 -0.92042,2.06385 -2.06388,2.06385 z m 0,42.99705 h -34.26247 c -1.14345,0 -2.06387,-0.92041 -2.06387,-2.06385 v -34.262 c 0,-1.14344 0.92042,-2.06438 2.06387,-2.06438 h 34.26247 c 1.14346,0 2.06388,0.92094 2.06388,2.06438 v 34.262 c 0,1.14344 -0.92042,2.06385 -2.06388,2.06385 z m 0,42.99705 h -34.26247 c -1.14345,0 -2.06387,-0.92041 -2.06387,-2.06385 v -34.262 c 0,-1.14344 0.92042,-2.06438 2.06387,-2.06438 h 34.26247 c 1.14346,0 2.06388,0.92094 2.06388,2.06438 v 34.262 c 0,1.14344 -0.92042,2.06385 -2.06388,2.06385 z m 0,42.99705 h -34.26247 c -1.14345,0 -2.06387,-0.92041 -2.06387,-2.06385 v -34.262 c 0,-1.14344 0.92042,-2.06438 2.06387,-2.06438 h 34.26247 c 1.14346,0 2.06388,0.92094 2.06388,2.06438 v 34.262 c 0,1.14344 -0.92042,2.06385 -2.06388,2.06385 z m 0,42.99705 h -34.26247 c -1.14345,0 -2.06387,-0.92041 -2.06387,-2.06385 v -34.262 c 0,-1.14344 0.92042,-2.06438 2.06387,-2.06438 h 34.26247 c 1.14346,0 2.06388,0.92094 2.06388,2.06438 v 34.262 c 0,1.14344 -0.92042,2.06385 -2.06388,2.06385 z m 0,42.99704 h -34.26247 c -1.14345,0 -2.06387,-0.9204 -2.06387,-2.06385 v -34.26199 c 0,-1.14344 0.92042,-2.06438 2.06387,-2.06438 h 34.26247 c 1.14346,0 2.06388,0.92094 2.06388,2.06438 v 34.26199 c 0,1.14345 -0.92042,2.06385 -2.06388,2.06385 z M 381.6839,110.62893 h -34.26247 c -1.14345,0 -2.06387,-0.92041 -2.06387,-2.06385 V 74.303075 c 0,-1.14344 0.92042,-2.06438 2.06387,-2.06438 h 34.26247 c 1.14346,0 2.06388,0.92094 2.06388,2.06438 v 34.262005 c 0,1.14344 -0.92042,2.06385 -2.06388,2.06385 z m 0,42.99705 h -34.26247 c -1.14345,0 -2.06387,-0.92041 -2.06387,-2.06385 v -34.262 c 0,-1.14344 0.92042,-2.06438 2.06387,-2.06438 h 34.26247 c 1.14346,0 2.06388,0.92094 2.06388,2.06438 v 34.262 c 0,1.14344 -0.92042,2.06385 -2.06388,2.06385 z m 0,42.99705 h -34.26247 c -1.14345,0 -2.06387,-0.92041 -2.06387,-2.06385 v -34.262 c 0,-1.14344 0.92042,-2.06438 2.06387,-2.06438 h 34.26247 c 1.14346,0 2.06388,0.92094 2.06388,2.06438 v 34.262 c 0,1.14344 -0.92042,2.06385 -2.06388,2.06385 z m 0,42.99705 h -34.26247 c -1.14345,0 -2.06387,-0.92041 -2.06387,-2.06385 v -34.262 c 0,-1.14344 0.92042,-2.06438 2.06387,-2.06438 h 34.26247 c 1.14346,0 2.06388,0.92094 2.06388,2.06438 v 34.262 c 0,1.14344 -0.92042,2.06385 -2.06388,2.06385 z m 0,42.99705 h -34.26247 c -1.14345,0 -2.06387,-0.92041 -2.06387,-2.06385 v -34.262 c 0,-1.14344 0.92042,-2.06438 2.06387,-2.06438 h 34.26247 c 1.14346,0 2.06388,0.92094 2.06388,2.06438 v 34.262 c 0,1.14344 -0.92042,2.06385 -2.06388,2.06385 z m 0,42.99705 h -34.26247 c -1.14345,0 -2.06387,-0.92041 -2.06387,-2.06385 v -34.262 c 0,-1.14344 0.92042,-2.06438 2.06387,-2.06438 h 34.26247 c 1.14346,0 2.06388,0.92094 2.06388,2.06438 v 34.262 c 0,1.14344 -0.92042,2.06385 -2.06388,2.06385 z m 0,42.99704 h -34.26247 c -1.14345,0 -2.06387,-0.9204 -2.06387,-2.06385 v -34.26199 c 0,-1.14344 0.92042,-2.06438 2.06387,-2.06438 h 34.26247 c 1.14346,0 2.06388,0.92094 2.06388,2.06438 v 34.26199 c 0,1.14345 -0.92042,2.06385 -2.06388,2.06385 z m 42.99705,-257.98229 h -34.26247 c -1.14345,0 -2.06387,-0.92041 -2.06387,-2.06385 V 74.303075 c 0,-1.14344 0.92042,-2.06438 2.06387,-2.06438 h 34.26247 c 1.14345,0 2.06387,0.92094 2.06387,2.06438 v 34.262005 c 0,1.14344 -0.92042,2.06385 -2.06387,2.06385 z m 0,42.99705 h -34.26247 c -1.14345,0 -2.06387,-0.92041 -2.06387,-2.06385 v -34.262 c 0,-1.14344 0.92042,-2.06438 2.06387,-2.06438 h 34.26247 c 1.14345,0 2.06387,0.92094 2.06387,2.06438 v 34.262 c 0,1.14344 -0.92042,2.06385 -2.06387,2.06385 z m 0,42.99705 h -34.26247 c -1.14345,0 -2.06387,-0.92041 -2.06387,-2.06385 v -34.262 c 0,-1.14344 0.92042,-2.06438 2.06387,-2.06438 h 34.26247 c 1.14345,0 2.06387,0.92094 2.06387,2.06438 v 34.262 c 0,1.14344 -0.92042,2.06385 -2.06387,2.06385 z m 0,42.99705 h -34.26247 c -1.14345,0 -2.06387,-0.92041 -2.06387,-2.06385 v -34.262 c 0,-1.14344 0.92042,-2.06438 2.06387,-2.06438 h 34.26247 c 1.14345,0 2.06387,0.92094 2.06387,2.06438 v 34.262 c 0,1.14344 -0.92042,2.06385 -2.06387,2.06385 z m 0,42.99705 h -34.26247 c -1.14345,0 -2.06387,-0.92041 -2.06387,-2.06385 v -34.262 c 0,-1.14344 0.92042,-2.06438 2.06387,-2.06438 h 34.26247 c 1.14345,0 2.06387,0.92094 2.06387,2.06438 v 34.262 c 0,1.14344 -0.92042,2.06385 -2.06387,2.06385 z m 0,42.99705 h -34.26247 c -1.14345,0 -2.06387,-0.92041 -2.06387,-2.06385 v -34.262 c 0,-1.14344 0.92042,-2.06438 2.06387,-2.06438 h 34.26247 c 1.14345,0 2.06387,0.92094 2.06387,2.06438 v 34.262 c 0,1.14344 -0.92042,2.06385 -2.06387,2.06385 z m 0,42.99704 h -34.26247 c -1.14345,0 -2.06387,-0.9204 -2.06387,-2.06385 v -34.26199 c 0,-1.14344 0.92042,-2.06438 2.06387,-2.06438 h 34.26247 c 1.14345,0 2.06387,0.92094 2.06387,2.06438 v 34.26199 c 0,1.14345 -0.92042,2.06385 -2.06387,2.06385 z m 42.99704,-257.98229 h -34.26246 c -1.14346,0 -2.06388,-0.92041 -2.06388,-2.06385 V 74.303075 c 0,-1.14344 0.92042,-2.06438 2.06388,-2.06438 h 34.26246 c 1.14346,0 2.06388,0.92094 2.06388,2.06438 v 34.262005 c 0,1.14344 -0.92042,2.06385 -2.06388,2.06385 z m 0,42.99705 h -34.26246 c -1.14346,0 -2.06388,-0.92041 -2.06388,-2.06385 v -34.262 c 0,-1.14344 0.92042,-2.06438 2.06388,-2.06438 h 34.26246 c 1.14346,0 2.06388,0.92094 2.06388,2.06438 v 34.262 c 0,1.14344 -0.92042,2.06385 -2.06388,2.06385 z m 0,42.99705 h -34.26246 c -1.14346,0 -2.06388,-0.92041 -2.06388,-2.06385 v -34.262 c 0,-1.14344 0.92042,-2.06438 2.06388,-2.06438 h 34.26246 c 1.14346,0 2.06388,0.92094 2.06388,2.06438 v 34.262 c 0,1.14344 -0.92042,2.06385 -2.06388,2.06385 z m 0,42.99705 h -34.26246 c -1.14346,0 -2.06388,-0.92041 -2.06388,-2.06385 v -34.262 c 0,-1.14344 0.92042,-2.06438 2.06388,-2.06438 h 34.26246 c 1.14346,0 2.06388,0.92094 2.06388,2.06438 v 34.262 c 0,1.14344 -0.92042,2.06385 -2.06388,2.06385 z m 0,42.99705 h -34.26246 c -1.14346,0 -2.06388,-0.92041 -2.06388,-2.06385 v -34.262 c 0,-1.14344 0.92042,-2.06438 2.06388,-2.06438 h 34.26246 c 1.14346,0 2.06388,0.92094 2.06388,2.06438 v 34.262 c 0,1.14344 -0.92042,2.06385 -2.06388,2.06385 z m 0,42.99705 h -34.26246 c -1.14346,0 -2.06388,-0.92041 -2.06388,-2.06385 v -34.262 c 0,-1.14344 0.92042,-2.06438 2.06388,-2.06438 h 34.26246 c 1.14346,0 2.06388,0.92094 2.06388,2.06438 v 34.262 c 0,1.14344 -0.92042,2.06385 -2.06388,2.06385 z m 0,42.99704 h -34.26246 c -1.14346,0 -2.06388,-0.9204 -2.06388,-2.06385 v -34.26199 c 0,-1.14344 0.92042,-2.06438 2.06388,-2.06438 h 34.26246 c 1.14346,0 2.06388,0.92094 2.06388,2.06438 v 34.26199 c 0,1.14345 -0.92042,2.06385 -2.06388,2.06385 z" />
    <path
       style="fill:none;stroke:#ff0000;stroke-width:0.270864"
       d="M 470.02427,370.91462 H 44.095824 c -1.119641,0 -2.021013,-0.8964 -2.021013,-2.00988 V 71.94517 c 0,-1.113473 0.901372,-2.009878 2.021013,-2.009878 H 470.02427 c 1.11965,0 2.02101,0.896405 2.02101,2.009878 v 296.95957 c 0,1.11348 -0.90136,2.00988 -2.02101,2.00988 z"
       id="rect403" />
  </g>
</svg>
